<svg xmlns="http://www.w3.org/2000/svg" width="720" height="520" viewBox="0 0 720 520" role="img" aria-labelledby="title desc">
  <title id="title">Смена предприятия общественного питания</title>
  <desc id="desc">Иллюстрация рабочего места с контрольным листом, кухонной зоной и отметками проверки.</desc>
  <rect width="720" height="520" fill="#eaf1ec"/>
  <rect x="56" y="70" width="608" height="380" rx="8" fill="#ffffff" stroke="#c9d8ce" stroke-width="4"/>
  <rect x="92" y="112" width="208" height="288" rx="8" fill="#236b4f"/>
  <rect x="118" y="142" width="156" height="18" rx="4" fill="#f2c14e"/>
  <rect x="118" y="184" width="128" height="12" rx="4" fill="#dbe6de"/>
  <rect x="118" y="214" width="148" height="12" rx="4" fill="#dbe6de"/>
  <rect x="118" y="244" width="110" height="12" rx="4" fill="#dbe6de"/>
  <circle cx="132" cy="314" r="22" fill="#f2c14e"/>
  <rect x="168" y="298" width="86" height="12" rx="4" fill="#ffffff"/>
  <rect x="168" y="324" width="66" height="12" rx="4" fill="#ffffff"/>
  <rect x="350" y="112" width="214" height="288" rx="8" fill="#f7faf6" stroke="#dbe6de" stroke-width="4"/>
  <rect x="384" y="148" width="146" height="18" rx="4" fill="#17201b"/>
  <rect x="384" y="196" width="124" height="14" rx="4" fill="#b8c9bd"/>
  <path d="M530 192l18 18 36-42" fill="none" stroke="#236b4f" stroke-width="12" stroke-linecap="round" stroke-linejoin="round"/>
  <rect x="384" y="250" width="124" height="14" rx="4" fill="#b8c9bd"/>
  <path d="M532 242l44 44m0-44l-44 44" stroke="#d75b43" stroke-width="12" stroke-linecap="round"/>
  <rect x="384" y="322" width="152" height="14" rx="4" fill="#b8c9bd"/>
  <path d="M530 318l18 18 36-42" fill="none" stroke="#236b4f" stroke-width="12" stroke-linecap="round" stroke-linejoin="round"/>
  <rect x="108" y="422" width="480" height="18" rx="6" fill="#dbe6de"/>
  <rect x="108" y="422" width="318" height="18" rx="6" fill="#f2c14e"/>
</svg>
