<svg width="512" height="512" viewBox="0 0 100 100" fill="none" xmlns="http://www.w3.org/2000/svg">
  <circle cx="50" cy="50" r="50" fill="#196B43" />
  <circle cx="27.5" cy="63.5" r="12.5" fill="#F24020" />
  <path
    d="M39 25.5C40.5 23 44 23.2 45.3 25.8L61.7 57.8C63.4 61.1 63.2 65.1 61.2 68.2L57.8 73.5C56.2 76 52.6 75.9 51.1 73.3L34.4 44.8C32.5 41.6 32 37.6 32.8 34L34.2 27.8C34.8 24.9 37.5 23.4 39 25.5Z"
    fill="#FF761A"
  />
  <path
    d="M60.5 25.5C62 23 65.5 23.2 66.8 25.8L83.3 57.8C85 61.1 84.8 65.2 82.7 68.4L79.5 73.2C77.9 75.7 74.3 75.8 72.7 73.2L55.8 45C53.9 41.8 53.4 37.8 54.2 34.2L55.7 27.8C56.4 24.9 59 23.4 60.5 25.5Z"
    fill="#FF761A"
  />
</svg>
